# xmcd CD database file
#
# Track frame offsets:
#	150
#	18305
#	36440
#	55250
#	75330
#	93777
#	111005
#	127757
#	145120
#	162465
#
# Disc length: 2404 seconds
#
# Revision: 0
# Processed by: cddbd v1.5.2PL0 Copyright (c) Steve Scherf et al.
# Submitted via: CDex 1.70beta2
#
DISCID=7209620a
DTITLE=Nelson Arrieta - Cuando Nacen las Palabras
DYEAR=1996
DGENRE=Salsa
TTITLE0=Si no existiera Tu
TTITLE1=Dejame Soñar
TTITLE2=Me DIjeron
TTITLE3=Cuerpito de Mujer
TTITLE4=Cuando Vuelvas
TTITLE5=Un Reggae para Ella
TTITLE6=Arcoiris de Luna
TTITLE7=A Veces
TTITLE8=Llegaras Mañana
TTITLE9=Ensayo y Error
EXTD=YEAR: 1996
EXTT0=
EXTT1=
EXTT2=
EXTT3=
EXTT4=
EXTT5=
EXTT6=
EXTT7=
EXTT8=
EXTT9=
PLAYORDER=
